<svg xmlns="http://www.w3.org/2000/svg" xmlns:xlink="http://www.w3.org/1999/xlink" width="1920" height="1080" viewBox="0 0 1920 1080"><defs><style>.cls-1{isolation:isolate;}.cls-2{fill:#759c9c;}.cls-3{mix-blend-mode:screen;opacity:0.9;}.cls-4{fill:#f0f3a6;}.cls-5{mix-blend-mode:multiply;}.cls-6{fill:#ccc;}.cls-11,.cls-7{fill:#e6bcaa;}.cls-7{stroke:#000;stroke-miterlimit:10;}.cls-8{fill:#fff;}.cls-9{fill:#18231b;}.cls-10{fill:#496951;}.cls-12{opacity:0.44;}.cls-13{fill:#b2ddfb;}</style></defs><g class="cls-1"><g id="Layer_1" data-name="Layer 1"><rect class="cls-2" x="0.5" y="0.5" width="1919" height="1079"/><path d="M1919,1V1079H1V1H1919m1-1H0V1080H1920V0Z"/></g><g id="Layer_2" data-name="Layer 2"><image class="cls-3" width="504" height="558" transform="translate(1379 30)" xlink:href="Artboard%2011.png"/><path class="cls-4" d="M1716,527a15.74,15.74,0,0,1-4.55-.65c-9.1-2.65-12.77-10.73-17.41-21-4.4-9.71-9.39-20.72-20.39-30.92-15.56-14.45-36.13-23.75-61.13-27.63h-.5c-4.28,0-42.9-.58-80.47-20.45-15.68-8.29-39.37-27.18-58.86-55.33-15.21-22-33.18-57.55-32.37-102.22.78-43.49,19.24-87.83,50.64-121.65,33-35.53,76.09-55.54,121.36-56.36l2.87,0c84.44,0,148.75,66.49,168.65,132.17,12.85,42.42,6.55,81.45-1,106.71l0,.05v0c-2.74,30.94,3,57,17.08,77.33A77.21,77.21,0,0,0,1812.5,421c5.19,4.75,8.94,8.19,9.81,14.9,2.48,19.23-20.78,36.28-59.3,64.53-23.8,17.46-36.7,26.57-47,26.57Z"/><path d="M1615.18,91.3c84.19,0,148.33,66.31,168.17,131.81,12.81,42.31,6.53,81.23-1,106.43l0,.09v.11c-2.75,31.05,3,57.18,17.17,77.65a77.92,77.92,0,0,0,12.68,14c5.12,4.68,8.81,8.06,9.65,14.59,2.44,18.94-20.72,35.93-59.1,64.07-23.71,17.39-36.56,26.46-46.72,26.46a15.51,15.51,0,0,1-4.41-.62c-8.88-2.59-12.51-10.58-17.09-20.69-4.21-9.27-9.44-20.81-20.5-31.08-15.65-14.52-36.3-23.86-61.41-27.76H1612c-4.26,0-42.78-.58-80.24-20.39-15.62-8.26-39.24-27.09-58.68-55.17-15.17-21.92-33.09-57.39-32.29-101.93.79-43.37,19.2-87.59,50.52-121.32,32.89-35.43,75.86-55.39,121-56.2l2.86,0m0-1-2.88,0c-96.19,1.73-170.89,89.49-172.5,178.5-1.45,80.67,57.53,140,91.5,158,37.84,20,77,20.51,80.71,20.51h.42c18.23,2.83,41.64,9.65,60.87,27.5,22.78,21.14,20.09,46.78,38,52a16.41,16.41,0,0,0,4.69.66c10.71,0,24-9.59,47.31-26.66,38.41-28.16,62-45.47,59.5-65-1.53-11.9-12.1-13.95-22.5-29-17.9-25.92-18.85-56-17-77,6-20.23,14.94-61,1-107-20.44-67.51-85.83-132.52-169.12-132.52Z"/><image class="cls-5" width="284" height="256" transform="translate(1500 179)" xlink:href="Artboard%2012.png"/><path class="cls-4" d="M1561.23,318.21c17.28-16.87,35-26.16,52.77-27.63,3.11-.25,6.26-.28,9.3-.3,9.06-.07,18.43-.14,27.31-6.51,5.31-3.82,7.5-7.68,10-12.15a64.22,64.22,0,0,1,5-7.94c9.06-11.89,24.33-19.78,45.38-23.45l11.69,100.33-55.48,33.69Z"/><path d="M1710.64,240.82l5.77,49.53,5.83,49.95-26.83,16.29-28.14,17.08L1621.7,349.6l-59.63-31.51c17-16.48,34.52-25.56,52-27,3.09-.26,6.23-.28,9.27-.3,9.13-.07,18.58-.14,27.59-6.61,5.4-3.88,7.73-8,10.18-12.31a65.74,65.74,0,0,1,5-7.87c8.91-11.69,23.89-19.48,44.54-23.17m.87-1.17c-26.78,4.56-39.52,15-46.21,23.73-6.06,7.95-6.8,14.11-15,20-11.68,8.39-23.9,5.69-36.35,6.72-13.38,1.11-31.91,6.93-53.57,28.25l106.91,56.49q28-17,56-34l-11.79-101.17Z"/><path class="cls-4" d="M1676.59,358a97.61,97.61,0,0,0-28.09-43.81,81.51,81.51,0,0,0,20.07-9A82.57,82.57,0,0,0,1681.82,295a95.13,95.13,0,0,0,22.72,44.73Z"/><path d="M1681.51,296a95.59,95.59,0,0,0,22.27,43.66l-13.52,8.86-13.39,8.77a98,98,0,0,0-27.38-42.8,82.35,82.35,0,0,0,32-18.49m.62-2a81.3,81.3,0,0,1-34.65,20,97,97,0,0,1,28.82,44.82q14.51-9.49,29-19A94.54,94.54,0,0,1,1682.13,294Z"/><path class="cls-4" d="M1786.88,523.36c-5.22,0-20.09-12.28-44.18-36.49A550.45,550.45,0,0,1,1679,411.24c-23.31-33.24-25.74-43.7-22.07-51.38,2.15-4.51,10.8-9.3,26.51-18,14.93-8.27,23.95-13.26,29.08-13.26a6.19,6.19,0,0,1,.88.06c11.15,1.37,17,13.92,31.27,44.23l.66,1.41c7.92,16.85,14,29.69,18.44,39.07,13.2,27.88,14.58,30.79,17.26,40,15.42,52.73,12.36,67,7.07,69.73A2.4,2.4,0,0,1,1786.88,523.36Z"/><path d="M1712.48,329.11h0a7.08,7.08,0,0,1,.82.05c10.87,1.35,16.73,13.82,30.87,43.94l.67,1.42c7.91,16.85,14,29.69,18.43,39.07,13.19,27.85,14.57,30.76,17.24,39.89,16.14,55.16,11.51,67,7.32,69.14a1.82,1.82,0,0,1-.95.24c-3.49,0-13.93-6.31-43.83-36.34A550.13,550.13,0,0,1,1679.37,411c-23-32.87-25.53-43.54-22-50.88,2.08-4.36,11.2-9.41,26.31-17.77,14.85-8.22,23.82-13.19,28.83-13.19m0-1c-5.15,0-13.58,4.61-29.32,13.32-16.34,9-24.55,13.65-26.72,18.21-3.8,8-1,18.86,22.11,51.88a551.8,551.8,0,0,0,63.79,75.7c32,32.19,41.22,36.64,44.54,36.64a2.9,2.9,0,0,0,1.41-.35c12-6.12-3-57.15-6.82-70.31-3.61-12.35-4.67-13-35.72-79.1-14.67-31.24-20.73-44.5-32.33-45.93a7.07,7.07,0,0,0-.94-.06Z"/><path class="cls-6" d="M1710.59,538c-5.65,0-9.59-1.47-11.71-4.38-4.1-5.65-1-16.09,8.8-29.43s25.38-28.2,43.61-41.46c27.07-19.69,55.28-32.42,71.87-32.42,5.66,0,9.59,1.48,11.71,4.39,8.6,11.82-14.91,43.62-52.41,70.89-27.07,19.69-55.28,32.41-71.87,32.41Z"/><path d="M1823.16,430.77c5.49,0,9.29,1.41,11.31,4.18,3.91,5.38.7,15.89-8.8,28.84-9.86,13.44-25.31,28.12-43.5,41.35-27,19.64-55.09,32.32-71.58,32.32-5.48,0-9.29-1.4-11.31-4.18-3.9-5.37-.7-15.88,8.81-28.83,9.86-13.44,25.3-28.13,43.49-41.36,27-19.63,55.09-32.32,71.58-32.32m0-1c-16.17,0-44.16,12.14-72.17,32.51-37.77,27.48-61.29,59.53-52.52,71.59,2.27,3.12,6.48,4.59,12.12,4.59,16.17,0,44.16-12.13,72.17-32.51,37.77-27.47,61.29-59.53,52.52-71.58-2.27-3.12-6.48-4.6-12.12-4.6Z"/><path class="cls-6" d="M1717.69,547.64c-5.65,0-9.59-1.48-11.71-4.39-8.6-11.82,14.91-43.62,52.41-70.89,27.07-19.69,55.28-32.41,71.87-32.41,5.65,0,9.59,1.47,11.71,4.38,4.11,5.65,1,16.09-8.8,29.43s-25.38,28.2-43.61,41.46c-27.07,19.69-55.28,32.42-71.87,32.42Z"/><path d="M1830.26,440.45c5.49,0,9.29,1.4,11.31,4.18,3.91,5.37.7,15.88-8.8,28.83-9.86,13.44-25.31,28.13-43.5,41.36-27,19.63-55.09,32.32-71.58,32.32-5.49,0-9.29-1.41-11.31-4.18-3.9-5.38-.7-15.88,8.8-28.84,9.86-13.44,25.31-28.12,43.5-41.35,27-19.64,55.09-32.32,71.58-32.32m0-1c-16.17,0-44.16,12.13-72.17,32.51-37.77,27.47-61.29,59.53-52.52,71.58,2.27,3.12,6.48,4.6,12.12,4.6,16.17,0,44.16-12.14,72.17-32.51,37.77-27.48,61.29-59.53,52.52-71.59-2.27-3.12-6.48-4.59-12.12-4.59Z"/><path class="cls-6" d="M1724.62,559.45c-5.65,0-9.59-1.48-11.7-4.39-4.11-5.64-1-16.09,8.8-29.42s25.37-28.21,43.6-41.47c27.08-19.69,55.29-32.42,71.88-32.42,5.65,0,9.59,1.48,11.71,4.39,4.1,5.64,1,16.09-8.8,29.42-9.89,13.48-25.38,28.21-43.61,41.47-27.07,19.69-55.29,32.42-71.88,32.42Z"/><path d="M1837.2,452.25c5.48,0,9.28,1.41,11.3,4.19,3.91,5.37.7,15.88-8.8,28.83-9.86,13.44-25.31,28.13-43.5,41.36-27,19.63-55.09,32.32-71.58,32.32-5.48,0-9.28-1.41-11.3-4.19-3.91-5.37-.7-15.88,8.8-28.83,9.86-13.44,25.31-28.13,43.5-41.36,27-19.63,55.09-32.32,71.58-32.32m0-1c-16.18,0-44.16,12.14-72.17,32.52-37.78,27.47-61.29,59.52-52.52,71.58,2.27,3.12,6.47,4.6,12.11,4.6,16.18,0,44.16-12.14,72.17-32.51,37.78-27.48,61.29-59.53,52.52-71.59-2.27-3.12-6.47-4.6-12.11-4.6Z"/><path class="cls-6" d="M1732.69,569.64c-5.65,0-9.59-1.48-11.71-4.39-8.6-11.82,14.91-43.62,52.41-70.89,27.07-19.69,55.28-32.41,71.87-32.41,5.65,0,9.59,1.47,11.71,4.38,4.11,5.65,1,16.09-8.8,29.43s-25.38,28.2-43.61,41.46c-27.07,19.69-55.28,32.42-71.87,32.42Z"/><path d="M1845.26,462.45c5.49,0,9.29,1.4,11.31,4.18,3.91,5.37.7,15.88-8.8,28.83-9.86,13.44-25.31,28.13-43.5,41.36-27,19.63-55.09,32.32-71.58,32.32-5.49,0-9.29-1.41-11.31-4.18-3.9-5.38-.7-15.88,8.8-28.84,9.86-13.44,25.31-28.12,43.5-41.35,27-19.64,55.09-32.32,71.58-32.32m0-1c-16.17,0-44.16,12.13-72.17,32.51-37.77,27.47-61.29,59.53-52.52,71.58,2.27,3.12,6.48,4.6,12.12,4.6,16.17,0,44.16-12.14,72.17-32.51,37.77-27.48,61.29-59.53,52.52-71.59-2.27-3.12-6.48-4.59-12.12-4.59Z"/><path class="cls-6" d="M1744,574.08c-6,0-10.21-1.6-12.49-4.74-8.6-11.82,12.53-41.89,47.1-67,24.14-17.56,50-28.9,65.78-28.9,6,0,10.21,1.59,12.5,4.73,4.11,5.65,1.53,15.7-7.26,28.3-8.88,12.75-23,26.51-39.85,38.73-24.13,17.56-50,28.91-65.77,28.91Z"/><path d="M1844.41,473.91c5.84,0,9.91,1.52,12.09,4.53,3.92,5.38,1.27,15.48-7.26,27.72-8.85,12.7-23,26.41-39.73,38.61-24.06,17.5-49.76,28.81-65.49,28.81-5.83,0-9.9-1.53-12.09-4.53-3.91-5.39-1.27-15.49,7.26-27.72,8.86-12.71,23-26.42,39.73-38.61,24.06-17.51,49.77-28.81,65.49-28.81m0-1c-15.5,0-40.92,10.7-66.08,29-34.84,25.34-56,55.67-47.21,67.72,2.44,3.36,6.94,5,12.9,5,15.5,0,40.92-10.71,66.08-29,34.85-25.35,56-55.67,47.21-67.73-2.44-3.36-6.93-4.94-12.9-4.94Z"/><path class="cls-6" d="M1780.49,568.64c-5.66,0-9.85-1.65-12.11-4.77-3.34-4.58-2.38-11.91,2.7-20.63s13.88-18,24.61-25.82c14-10.15,29.47-16.45,40.5-16.45,5.66,0,9.84,1.64,12.11,4.76,3.34,4.59,2.38,11.91-2.7,20.64s-13.89,18-24.61,25.82c-14,10.15-29.47,16.45-40.5,16.45Z"/><path d="M1836.19,501.47c5.49,0,9.54,1.57,11.71,4.56,3.21,4.41,2.24,11.55-2.73,20.09-5.11,8.79-13.81,17.9-24.48,25.66-13.87,10.09-29.27,16.36-40.2,16.36-5.49,0-9.54-1.58-11.71-4.56-3.21-4.42-2.24-11.55,2.73-20.09,5.11-8.79,13.8-17.91,24.48-25.67,13.87-10.09,29.27-16.35,40.2-16.35m0-1c-10.82,0-26.14,5.88-40.79,16.54-22.3,16.22-34.58,37.33-27.43,47.15,2.45,3.37,6.87,5,12.52,5,10.81,0,26.14-5.89,40.79-16.55,22.29-16.21,34.57-37.32,27.43-47.15-2.45-3.37-6.87-5-12.52-5Z"/><path class="cls-6" d="M1803.29,564.78c-2.9,0-5-.81-6-2.33-1.39-2.14-.58-5.69,2.21-9.74a48.35,48.35,0,0,1,13.31-12.27c7.29-4.74,14.94-7.57,20.46-7.57,2.9,0,5,.81,6,2.33,3,4.54-4.15,14.62-15.52,22-7.29,4.74-14.94,7.57-20.46,7.57Z"/><path d="M1833.32,533.37c1.9,0,4.4.37,5.53,2.1,2.5,3.85-3.08,13.33-15.37,21.32-7.21,4.69-14.76,7.49-20.19,7.49-1.9,0-4.4-.37-5.53-2.1-2.5-3.85,3.08-13.33,15.37-21.32,7.21-4.69,14.76-7.49,20.19-7.49m0-1c-5.39,0-13.13,2.71-20.74,7.65-11.81,7.68-18.82,17.84-15.66,22.7,1.13,1.73,3.39,2.56,6.37,2.56,5.39,0,13.13-2.71,20.74-7.65,11.81-7.68,18.82-17.84,15.66-22.7-1.13-1.73-3.39-2.56-6.37-2.56Z"/><path class="cls-7" d="M1564.25,857.82c-27.72-29.39-49.16-63.6-59-85.6-.32-.3-.65-.59-1-.87-.3.53-.57,1-.9,1.59-6.77,11.17-17.43,16.92-36.52,24.86,5.71,13.81,17.42,34.31,34.68,67.41,22.47,43.09,22.33,46.28,31.37,55.35,31,31.07,78.46,41,84.88,31.37,2.16-3.25-1.51-7-7.38-24-6.29-18.23-7.16-28.73-9.23-36.9-.14-.55-.28-1.07-.43-1.6C1590.36,882.62,1578.18,872.6,1564.25,857.82Z"/><path class="cls-7" d="M1593.77,841.22c-25.79-21.35-48.53-46.3-60.07-62.79-9.46-.84-19.69-3.42-28.21-9.48-.29.6-.59,1.2-.92,1.82.21.47.44,1,.65,1.45,11.26,10.4,22.27,31.15,48.67,60.64,27.8,31.06,41.18,36.62,46.83,56.58,20.74,13.67,34.1,14.45,39.18,14.52,22.1.27,45.84-10.65,47.72-17.52C1656,892.69,1623.86,866.13,1593.77,841.22Z"/><path class="cls-7" d="M1662,841.22c-41.7-17.78-79.16-43-102-62.69l-1.87-1.11a102,102,0,0,1-22.68,1.14c9.93,9,22.79,20.72,39.49,35.81,48.66,43.91,63.79,56.81,89.61,62.77,10.58,2.45,22.62,3.65,23.14,8.14a3.13,3.13,0,0,1-.12,1.16c1.32-.26,2.63-.56,4-.94,16.69-4.77,31.17-18.51,35.43-29.67C1715.8,857.68,1696.8,856,1662,841.22Z"/><path class="cls-7" d="M1752.25,807a54.72,54.72,0,0,1-10.86,6.54c-17.53,7.48-39.21,3.32-56.41-7.3q-4.56-.57-8.87-1.35c-12.16,6.89-31.16,5.24-34.36,5-5.45-.47-38.09-3-48-24-3.22-6.82-2.86-13.11-2-19.41l-1.47-.83a96.41,96.41,0,0,1-27.89,11c-.67.15-2,.41-3.74.71.45.39.92.8,1.39,1.19,11.46,6.82,26.35,15.25,45.5,24.8,30,15,45.06,22.47,64.59,27.68,35,9.35,54.16,5.62,57.61,15.45.92,2.63.58,5.88-.75,9.37a34.82,34.82,0,0,0,10.7-3.54c14.28-7.41,24.57-22.44,28.33-34.79-.22-.1-.44-.17-.65-.27A36.91,36.91,0,0,1,1752.25,807Z"/><path class="cls-7" d="M1815.2,555.21c-13.19-2.62-30,2.48-31.37-1.85-1.13-3.52,10-6.87,14.76-16.61,8.08-16.48-7.78-39.51-11.07-44.28-8.4-12.2-26.34-30.8-46.86-37.75a49.59,49.59,0,0,1,2.57,13.76c.1,2.46.58,22.24-12.91,33.21-6,4.89-13.86,7.27-21.89,7.65,1.63,5,1.74,9.72-.25,12.65-4.1,6-16.56,3.91-16.61,5.54s10.33,2.8,24,5.53c22.31,4.47,26.69,7.36,29.52,11.07.53.7,5.73,7.71,3.69,14.77-2.42,8.39-12.74,8.81-12.92,12.91-.39,9.25,52,9.13,62.74,35.06.54,1.29,4.4,10.94,0,18.46s-15.49,10.26-26.9,11c12.59,2,24.93,6.19,28.75,14.85,2.36,5.36,1.73,13.07-1.85,18.45-4.91,7.39-14.21,8.69-18.45,9.23a49.51,49.51,0,0,1-22.6-2.87,110.89,110.89,0,0,1,18.91,13.94c16.7,15.56,28.37,38.46,25.83,59.05-.58,4.75-1.85,13.93-9.22,20.29-1.64,1.42-6.64,5.74-12.92,5.54-13.41-.42-22.58-21.13-24-20.3s12.27,17.14,9.23,33.22a27.28,27.28,0,0,1-4.67,10.66,6.51,6.51,0,0,1,4.67,2.25c2.81,3.32,2.85,9.64.65,16.88,28.77,12.62,64.94-15.12,67.62-37.18,2-16.29-14.45-32.22-11.07-35.05s16.65,14.63,25.83,11.07c9.38-3.64,13.39-28.75,3.69-46.13-8.3-14.89-23.52-18.51-22.14-24,1.63-6.48,22.47.22,33.21-9.23C1886.53,656.44,1857.57,563.62,1815.2,555.21Z"/><path class="cls-7" d="M1739.54,634.55a1.3,1.3,0,0,0,.39,0A2.23,2.23,0,0,0,1739.54,634.55Z"/><path class="cls-7" d="M1741.63,667.9c-.15-.1-.23-.15-.24-.13S1741.47,667.82,1741.63,667.9Z"/><path class="cls-7" d="M1714.42,807c14.49-1.09,25.39-4.21,33.48-6.4-7.05-12.49-8.47-27.93-7.64-37.88,1.44-17.45,11-33.9,16.6-33.22,4,.5,4.5,9.75,11.07,11.08,3.43.68,7.53-1,9.23-3.7,3.15-5-1.89-13.9-9.23-24-23.57-32.42-48.29-46.46-45-54.38,2.18-5.24,15-3.82,15.47-8.36.46-4-9.54-5.63-11.07-12.92-1.1-5.21,2.45-11.83,7.38-14.76,7-4.12,13.1,1.18,20.3-3.69,1.16-.79,5.36-3.63,5.53-7.38.37-7.66-16.52-8.51-31.37-22.14-14-12.82-10.06-22.2-26.54-35.93-9.2-7.66-12.37-5.84-16.61-11.07-6.87-8.49-9.77-22.28-8.56-36.57-6.79,8.31-15.12,15.35-24.18,19.72,14.13,6,27,17.79,25.36,26.08-1.24,6.17-10.57,8.2-11.07,16.6-.18,3,.71,7.5,3.69,9.23,6.16,3.58,14.29-8.75,22.14-7.38,14.43,2.51,30.25,51.65,11.07,77.5-11,14.75-28.52,15.46-33.21,33.21-.67,2.54-3.4,12.86,1.85,18.45,8.76,9.35,28.94-6.14,42.44,3.69,9.14,6.66,9.2,20.55,9.22,25.84,0,1.81-.24,29.9-18.45,35.06-10.32,2.92-22.95-2.49-27.68-11.07-5.64-10.26,1.31-22.64-1.84-24-2.48-1.07-10.18,5.1-11.08,12.91-1.29,11.34,13,14.95,18.46,33.22,1.37,4.62,4.22,14.17,0,22.14a18.52,18.52,0,0,1-4.66,5.61c1.76,1.3,3.58,2.54,5.45,3.7A147.73,147.73,0,0,0,1714.42,807Z"/><path class="cls-7" d="M1747.9,800.62a43.54,43.54,0,0,0,4.35,6.38,41.83,41.83,0,0,0,8.46-8.63C1757.57,798.08,1753.38,799.14,1747.9,800.62Z"/><path class="cls-7" d="M1667.58,791.4c-16.88-20.06-16.41-44.48-15.9-71.1a173.56,173.56,0,0,1,12.21-61.76c11.66-29.17,21.75-30.42,21-45.27-1.12-22.24-24-24.89-38.75-59-2.7-6.26-6.3-14.64-7.9-23.5-11.42,3.13-23.09,5.71-35.25,17.1-11.08,10.36-11.33,17.38-11.07,20.29.79,9.2,9.84,15.2,14.76,18.46,17,11.28,26.64,4.12,36.9,12.91,14,12,10.06,37,9.23,42.44-1.19,7.7-4.2,27.14-18.45,35.06-16.77,9.33-34.07-5.63-46.13,5.54-4.66,4.31-7.64,11.69-5.54,16.6,2.23,5.21,8.8,4.47,16.61,9.23,9.14,5.57,15.89,16.2,16.6,24,1.06,11.47-9.56,23.41-23.88,32.23l-.27,1.87c13.45,7.69,23.21,16,39.63,24a177.12,177.12,0,0,0,44.72,14.47,24.06,24.06,0,0,0,3.42-2.35A70.85,70.85,0,0,1,1667.58,791.4Z"/><path class="cls-7" d="M1589,736.9c-5.35-9.24-9.67-7.38-14.77-16.6-8.47-15.34-7.35-40,5.54-51.67,12.69-11.43,27.85-2.12,38.75-14.76,6.41-7.43,8.24-18.86,5.54-27.68-4.34-14.14-18-13.83-29.53-27.68-11.76-14.1-19.26-40.33-7.38-59,10.66-16.79,32.57-20.69,50.34-18.29a31.66,31.66,0,0,1,4.31-15.78c5.77-9.7,17.18-16.23,29-18-2.42-15.78,11.32-35,2.38-42.88-5-4.39-13.48-2.18-14.77-1.84-20.54,5.35-19,38.12-36.9,42.44-8.9,2.14-20.17-3.32-24-11.07-8.44-17.14,19.44-45.69,16.61-48-2.17-1.75-14.19,18.35-33.22,24-12.59,3.73-27.29.84-40.62-5.28,1,5.21.81,9.93-1.82,12.66-9.47,9.82-43.81-13.42-49.82-5.54-2.26,3,1.83,7.78,5.54,18.46,4.87,14,5.83,28.74,4.72,37.2.28-.1.53-.21.81-.3,11-3.53,28.39-3.45,36.91,7.38,5.4,6.87,5.58,17.93,1.84,25.83-6.08,12.88-22.61,17.5-22.14,18.46.37.75,9.12-4.79,20.3-3.69,3.53.34,9.23.91,12.92,5.53,3.25,4.09,4.08,10.28,1.84,14.76-3.47,7-13.19,7.8-12.92,9.23.48,2.43,28.18-2.53,29.53,1.85.57,1.87-4.23,3.68-9.23,9.22-6,6.62-12.71,18.71-9.22,25.83,6.64,13.59,37,11.4,36.9,12.92-.09,1.32-22.31-3.94-42.44,5.54a58.19,58.19,0,0,0-31.37,38.75c-1.38,6-5.15,22.42,3.69,33.21,13.49,16.47,47.93,9.59,48,11.07S1534,719.78,1518.12,736c-6.08,6.21-7,12.36-8.4,19.34,4.43,3.8,11.11,9.84,21.39,19.18-4.51-7-6.44-12-4.9-13.67,2.33-2.52,11.22,4.11,32,16.53l.48-.08c-15.33-13.39-23.6-24-21.38-27.52,1.89-3,10.92-.25,24,3.69a142.34,142.34,0,0,1,29,12.11c.59-.34,1.17-.69,1.74-1C1593.29,756,1594.9,747.19,1589,736.9Z"/><path class="cls-7" d="M1533.7,778.43l1.8.13-4.39-4C1531.89,775.79,1532.76,777.08,1533.7,778.43Z"/><path class="cls-7" d="M1677.47,505.72c1-1.23,2-2.49,2.92-3.78-.79-.56-1.54-1.14-2.25-1.75Q1677.69,503,1677.47,505.72Z"/><path class="cls-7" d="M1637.44,521.17a47.92,47.92,0,0,0,.81,9.56,86,86,0,0,0,14.57-5.05c.16-.07.32-.16.47-.24-1.38-.58-2.77-1.14-4.16-1.6A63.86,63.86,0,0,0,1637.44,521.17Z"/><path class="cls-7" d="M1465.32,773.81c6.35-9.29,20.77-9.25,22.14-9.23,6.64.11,11.78,2.42,16.79,6.77l.32-.58c-.56-1.29-1.06-2.51-1.54-3.7a40.73,40.73,0,0,1-4.5-4.33c-21.56-24.33-6.93-66.8,1.85-92.26,13.38-38.84,25.91-36.9,29.52-59.05,5.36-32.93-19.2-56.46-39.27-80-4.22,9-10.27,16.19-16.8,16.45-13.67.54-19.44-29.83-35.06-29.53-11.31.22-19.28,16.34-22.14,22.14-2.71,5.49-12.51,25.33-1.85,44.29,5.2,9.25,16.57,20.61,29.53,20.3,13.56-.33,18-13.18,35.06-12.92.87,0,13.1.31,14.76,5.54.28.9,1.3,5.23-11.07,14.76-26.33,20.28-46.07,12.34-59,27.68-10,11.79-11.32,31.87-3.69,38.75,11.63,10.49,45.87-8.11,46.13-7.38s-20.14,5.73-35.06,22.14c-4.33,4.76-11.43,12.56-9.23,18.45,4.17,11.15,38.73,7.6,38.75,9.23,0,1.18-18.23-.67-36.9,7.38-10.21,4.4-16.4,10-27.68,20.3a190.23,190.23,0,0,0-19.21,20.11,30.64,30.64,0,0,1,2.6,9.41c1.65,16-12.77,30.84-26.37,38.2,4.06.82,8.58,1.56,13.46,2.39,33.27,5.68,59.29-4.81,88.57-16.6,4.14-1.67,7.92-3.2,11.45-4.67C1462.08,786.3,1461.47,779.43,1465.32,773.81Z"/><path class="cls-7" d="M1500.38,749.82c-2.16,1.54-1.08,7.89,2.65,17.25.8.66,1.62,1.29,2.46,1.88a55.26,55.26,0,0,0,4.23-13.57C1503.15,749.76,1501.49,749,1500.38,749.82Z"/><path class="cls-7" d="M1467.16,476.73a46.65,46.65,0,0,1,1.46-6.34c-.7-.65-1.42-1.28-2.17-1.91-12.61-10.58-24.34-12.65-32.14-16.68-3.71,1.62-8.22.44-17.68,3.76-4.42,1.56-11.33,4-16.61,9.23-8.93,8.87-4.13,16.8-11.07,27.68-7.58,11.88-21.85,15.82-31.37,18.45-18.82,5.2-24.38-1.1-35.06,5.54-13.93,8.66-16.25,26.72-16.61,29.52-1.39,10.9.11,31.2,12.92,36.9,11.52,5.13,26-4.92,29.53-7.38,10.8-7.47,15.42-17.29,16.6-16.6,1.68,1-13.21,17.59-11.07,36.9,1.9,17.12,15.56,19.53,18.45,36.91,2.31,13.83-2.54,32-14.19,41.93,6.26,3.88,10.68,8.42,12.35,13.42,3.76,11.25-5.11,28.43-16.61,36.91-15.18,11.19-31.25,4.49-36.9,14.76-4.66,8.45.35,23.71,9.22,27.68,12.72,5.69,26.15-15,40.6-9.23a16.11,16.11,0,0,1,4.62,2.9c18.91-16.61,37.23-35.78,34.84-57.39-1.14-10.28-5.72-9.82-7.38-24-3.11-26.46,11.81-37,11.07-62.74-.47-16.22-6.49-14-11.07-36.9-2-9.84-11.29-56.23,12.2-72.83,8.73-6.17,21.73-8,32.08-4.67,15.82,5.15,17.66,20,29.53,20.3a12.38,12.38,0,0,0,8.55-3.17C1471.42,506.41,1464.74,492.63,1467.16,476.73Z"/><path class="cls-7" d="M1492.6,510.39c-5.12,3.05-8.15,6.73-11.35,9.3,2.9,3.93,6.08,7.81,9.38,11.69a67,67,0,0,0,5.34-16.77C1494.81,514.91,1493.82,513.29,1492.6,510.39Z"/><path class="cls-7" d="M1281.93,723.12c-2.82-2.54-22.52,23-35.06,18.45a10.41,10.41,0,0,1-3.22-1.94,17.16,17.16,0,0,0-.47,1.94c-2.12,11.71,6.62,23.38,14.6,27.82C1259.08,746.82,1284.78,725.69,1281.93,723.12Z"/><path class="cls-7" d="M1333.59,806.16c-1.89-5.55,1.75-11.8,8.25-18.72-12.61-1.58-25.95-8.18-34.08-18.19-18.61-22.9-2.2-54.08,4.92-91.18-9.25-.93-19.38-.57-30.75,4.46-25.12,11.1-35,35.5-47.61,31.47.56,11.12,4.13,21.17,9.33,25.63,4.56-15.37,27.65-18.2,29-18.35,5.06-.56,12.47-1.37,15.47,2.71,1.24,1.68,2.35,5-15.47,37.88-3.5,6.46-4.8,8.61-7.38,9.23-2.1.5-4.77-.17-7.54-1.71a28.71,28.71,0,0,0,.16,5.4c3.75,29.2,55,58.9,90.42,44.28a52.27,52.27,0,0,0,5-2.39C1342.93,814.59,1335.58,812,1333.59,806.16Z"/><path class="cls-7" d="M1371.43,761.08c-11,9.66-22.16,18.45-29.59,26.36a37.24,37.24,0,0,0,17.59-1.58c7.52-2.81,10.18-7.64,17.69-16.79A23.52,23.52,0,0,0,1371.43,761.08Z"/><path class="cls-7" d="M1523.65,357.77c1.65,6.39-6.31,16.48-14.76,20.29-9.61,4.34-17.19-.63-24,5.54a17.2,17.2,0,0,0-5.53,12.92c.33,7.34,6.45,9.39,5.53,14.76-.86,5-7.36,9.63-12.91,9.22-6.27-.45-7.24-7-12.92-7.38-6.8-.5-13.56,8.21-16.61,14.77,13.94,3.43,26.28,12.67,35.67,24.7,8.46-10.79,20.83-19.85,34.55-27-8.06-8.29-12.67-17-11.17-23.55,2.59-11.29,23-15.35,48-20.3,16.75-3.32,37.76-7.45,62.47-5.59-2.45-8.06-21.59-14.79-27.42-16.55-9.28-2.8-34.35-10.35-63.77-6.18A9,9,0,0,1,1523.65,357.77Z"/><path class="cls-7" d="M1496,514.61c1.31-.34,2.34-3,2.88-7.08-.74.25-1.47.52-2.15.8A56.37,56.37,0,0,1,1496,514.61Z"/><path class="cls-7" d="M1492.6,510.39a34.8,34.8,0,0,1,4.1-2.06c1.2-18.79-6.07-39.73-18.57-55.74a54.66,54.66,0,0,0-9.51,17.8C1484.13,484.57,1489.24,502.38,1492.6,510.39Z"/><path class="cls-7" d="M1166,610.57a1,1,0,0,0-.36,0S1165.81,610.59,1166,610.57Z"/><path class="cls-7" d="M1431.39,363.3c4.34,6.16,5.44,15.73,1.85,22.14-2.29,4.09-6.13,6.27-33.22,16.61-12,4.59-15.33,5.72-16.61,9.23-2.64,7.31,8,12.75,9.23,24a23.64,23.64,0,0,1-.37,7.13c12.94-9.15,24-14.56,35.17-15.65,2.52-5.89,6.7-12.19,11.33-19.16,6.18-9.29,17.34-25.71,38.75-38.75a113,113,0,0,1,43.25-15.41c-11.15-10.13-50.7-14.31-83.84-1.2a87.49,87.49,0,0,0-11.68,5.56A19.42,19.42,0,0,1,1431.39,363.3Z"/><path class="cls-7" d="M1241.33,684.37c13-19.78,44.81-25.55,73.71-22.61,1.51-16.43.21-33.86-7.28-52.12-9.35-22.78-19.78-26-20.3-45.21-.86-32,27-56.66,55.36-81.19,6.79-5.86,13.06-11.31,18.94-16.35-5.62-1.27-11.35-4.62-17.11-9.27a16.06,16.06,0,0,1-3.68,5.32c-11.69,11.08-40.78,3-57.2-12.91-10.54-10.21-11.44-24.1-18.45-24-5.92.09-10.12,9.54-10.36,10.09-5.54,12.84,4.84,22.84,0,29.53-6.2,8.55-27.85-1.41-31.37,5.53-2.19,4.32,4,12.41,9.23,16.61,4.85,3.92,8.32,4.05,14,6.51,9.86,4.25,19.17,11.85,22.14,18.46,6.44,14.33-6.24,23.68-7.38,42.44-2.23,36.79,43.22,56.29,35.06,75.65-4.12,9.77-20.19,15.44-29.53,11.07-17.47-8.18-8.82-50.36-21.22-53.51-6-1.52-8.58,8.93-21.22,14.76-7.78,3.6-17.41,4.55-26.78,3.25l-.89.44a46.7,46.7,0,0,1-15.64,4.1c5.4.9,11.19,2.87,15.64,7,9.43,8.72,11.64,26,5.53,31.37-5.18,4.53-13.16-2.35-31.37,0-8.89,1.15-16.78,4.07-16.6,5.54.37,3.16,37.22-5.38,44.28,7.38,4.45,8-3.34,23.69-14.76,29.52a21.39,21.39,0,0,1-2.87,1.21,36.17,36.17,0,0,0,8.41,2.48c11.2,1.84,17.5-3.51,27.67,1.85,10.4,5.47,9.45,14,16.61,16.61l.37.1C1233.81,703.85,1235.79,692.82,1241.33,684.37Z"/><path class="cls-7" d="M1357.58,675.15c.2-.16.38-.35.57-.51-10.54-6.54-26.33-11.18-43.11-12.88-.51,5.55-1.33,11-2.36,16.31C1330,679.81,1344.15,686.09,1357.58,675.15Z"/><path class="cls-7" d="M1425.85,442.65c1.52,4.5,4.48,7.08,8.46,9.15a9.18,9.18,0,0,0,2.62-1.77c5.4-5.16.45-11.21,5.53-22.14a44,44,0,0,0-15-1.14C1425.05,432.36,1424.16,437.59,1425.85,442.65Z"/><path class="cls-7" d="M1324.37,403.9c4.58,3.67,18.19,14.63,21.47,31.92,3.79-2.59,15.34-15.78,37.57-41.15a209.62,209.62,0,0,1,36-33.07,65.37,65.37,0,0,1,5.86-3.81c-12.15-7.13-33.34-4.41-52.91-1.87a153.57,153.57,0,0,0-36.9,9.23c-19.16,7.6-36,13.56-38.75,25.82a66.26,66.26,0,0,1,26.07,11.66C1323.47,403.18,1324,403.61,1324.37,403.9Z"/><path class="cls-7" d="M1372.34,466.64c9.6-3,17.88-13.72,19.93-24.24-9,6.4-19,14.63-30.51,24.49A20.18,20.18,0,0,0,1372.34,466.64Z"/><path class="cls-7" d="M1075.26,544.13c.66-.86,5.54-7.38,5.54-7.38-16.21,4.3-20.3,0-20.3,0-1.46-1.75-1.73-4.3-1.23-7.25a16.15,16.15,0,0,0-6.15,3.56,20.19,20.19,0,0,0-5.54,18.46,18.15,18.15,0,0,0,3.67,7.4l0,0C1058.45,551.45,1069.36,551.84,1075.26,544.13Z"/><path class="cls-7" d="M1104.78,654.85c-14.69-18.51-16.45-29.31-24-29.52-.44,0-1.37.16-2.61.4-5.66,2-8.45,10.52-17.69,10.67-9.32,13.67,1.19,32.1,1.84,33.21,11.06,18.74,35.1,19.93,42.44,20.3,3.12.15,24.41,1.21,27.68-7.38a7.29,7.29,0,0,0,.41-1.59c-1.93-1.18-3.91-2.48-5.94-4C1116.45,669.44,1110,661.44,1104.78,654.85Z"/><path class="cls-7" d="M1149.07,485.09c5.24,7.59,7.18,18.66,3.69,27.68-4.13,10.66-14,13.66-12.92,16.6,2.18,5.79,38.81-9.75,62.74,5.54,2.81,1.79,7.56,5.13,7.38,9.22-.49,11.41-39.06,19.19-38.75,20.3.25.89,23.12-9.5,36.91,0a21.89,21.89,0,0,1,9.22,16.61c.29,7.14-3.64,13-8.12,17.35a31.62,31.62,0,0,0,17.35-6.28c8.56-6.47,11.77-15.55,14.76-24,1.24-3.49,11.22-32.83-3-49-8.66-9.83-17.89-5.18-24-12.92-12.51-15.88,3-65.27,34.35-78.36,28.49-11.88,53.77,11.32,78.51,12.34-5.77-6.63-11.44-13.8-16.9-20.71-14.12-17.85-14.6-24.22-13.63-28.54h0a77.18,77.18,0,0,0-18.45-1.83c-26.86.79-25.13,18.31-59,24-12.94,2.17-21.46,1-35.06,7.38-7.26,3.41-10.56,6.43-20.3,11.08A135.05,135.05,0,0,1,1138,440.8c-20.18,13.59-24.76,23.87-24,31.37,0,0,0,.05,0,.08C1126.34,471,1141.16,473.63,1149.07,485.09Z"/><path class="cls-7" d="M1346.51,440.8a39.82,39.82,0,0,0-.67-5,4.14,4.14,0,0,1-.46.31,34.22,34.22,0,0,1-18.16,4.1,146.44,146.44,0,0,0,17.43,17.39C1347.21,451.77,1346.77,444.82,1346.51,440.8Z"/><path class="cls-7" d="M1147.22,653c-3.11-7.42-6.55-15.92-4.82-26.81.34-2.11,2.66-15.57,12.92-24a28.69,28.69,0,0,1,17.18-6.37,33.35,33.35,0,0,1-6.11-6.54c-10-14.54-1.19-30.14-12.92-38.75-8.26-6.07-15.6-.5-21-6.41-8.59-9.37,7.78-25.72.71-45.26-5.26-14.56-17.94-15.46-19.15-26.62a51.36,51.36,0,0,0-9.24,1.77c-13.34,3.94-20.36,13.56-29.52,25.83-2.28,3.06-14.17,19-16,29.65,7.33-2.36,16.54-.27,25.22,1.72,7.17,1.64,36.9,8.38,36.9,20.3,0,11.21-16.52,20.29-36.9,20.29-11.09,0-26.11-4.07-33.24-12.89-1.19,1.24-17.28,18.45-12.89,35,2,7.4,6.21,8,7.38,16.6,1.24,9.2-3.19,13.13,0,18.46,2.92,4.88,9.31,7.46,14.76,7.38,5-7.35,13.32-9.83,17.69-10.67a7.12,7.12,0,0,1,2.61-.4c.76-.09,11.83-1.21,19.37,3.69,4.62,3,3.24,5.2,10.86,15.62,3.88,5.31,5,5.76,8.52,10.21,6,7.62,14.52,18.55,13.32,26.09a83.45,83.45,0,0,0,19.89,9c12.08,3.44,20.5,5.82,28.5,3.05C1160.19,684,1148.93,657.06,1147.22,653Z"/><path class="cls-7" d="M1172.5,595.83c6.76,5.62,16,9.28,25.44,10.6a50.61,50.61,0,0,0,11.28-8C1197.07,599.29,1184.28,595.11,1172.5,595.83Z"/><path class="cls-7" d="M1585.26,393.69c-36.28,8.77-64.9-8.23-69-.86-2.23,4,6,9.71,13.88,24.91a179,179,0,0,1,37.79-10.15c51.78-7.59,119.27,12.41,126.18,48.84a38,38,0,0,1,.58,8.67,44.41,44.41,0,0,1,13.48-9.54c10.88-4.91,22-4.39,32.48-.84-11.73-35.52-61.07-62.77-97.07-73a159.42,159.42,0,0,0-31.63-5.59,5.63,5.63,0,0,1,.26,1.9C1611.87,386.8,1590.25,392.48,1585.26,393.69Z"/><path class="cls-7" d="M1693.41,490.62a30.92,30.92,0,0,0-5-2.05,84.86,84.86,0,0,1-8,13.37c7.3,5.09,17.8,7.89,28,7.4C1706.09,502.16,1700.57,494.42,1693.41,490.62Z"/><path class="cls-7" d="M1688.39,488.57a61.63,61.63,0,0,0,6.31-23.47,59.69,59.69,0,0,0-13.27,22A34.58,34.58,0,0,1,1688.39,488.57Z"/><path class="cls-7" d="M1678.14,500.19a74.34,74.34,0,0,1,3.29-13.08,41.69,41.69,0,0,0-10.69.26,19.69,19.69,0,0,0,2.38,6.94A22.55,22.55,0,0,0,1678.14,500.19Z"/><path class="cls-7" d="M1540.23,444.75c-1.27-6.85-4.49-14.55-6.64-19.69-1.12-2.66-2.27-5.09-3.44-7.32a171.78,171.78,0,0,0-17.47,7.86A94.12,94.12,0,0,0,1540.23,444.75Z"/><path d="M1367.29,844.53c-.81,0-2.81-4.65-4.27-8-2.84-6.6-6.06-14.09-9.49-14.09l-.24,0c-2.94.29-4.54,5.84-6,10.73-.63,2.16-1.49,5.13-2,5.35-.45-.32-.72-3.58-.92-6-.4-4.72-.81-9.6-3-10.1a1.5,1.5,0,0,0-.37,0c-2,0-4.16,3.67-6.45,7.55-1.73,2.93-3.88,6.58-5.1,6.58h-.12c-.94-.25-1-3.54-1.12-6.19-.13-4.11-.28-8.77-2.83-9.86a2.85,2.85,0,0,0-1.13-.23c-2.74,0-6.23,3.53-9.62,6.94-2.65,2.67-5.4,5.44-6.91,5.44a1,1,0,0,1-.39-.08c-1.35-.7-.5-5.31.18-9,.81-4.4,1.51-8.19-.18-9.07a1.56,1.56,0,0,0-.72-.17c-2.7,0-7.94,6.23-14.51,14.37-2.61,3.25-5.54,6.88-6.69,7.71a52.79,52.79,0,0,1,3-6.77c4.16-8.52,7.16-15.19,4.93-17.08a2.17,2.17,0,0,0-1.47-.48c-2.91,0-8.37,3.76-13.65,7.39-3.7,2.56-7.54,5.2-8.82,5.2a.35.35,0,0,1-.14,0c-.41-.65,2.32-4.66,4-7.06,3.27-4.81,5.22-7.82,4.1-9a1.35,1.35,0,0,0-1-.37c-1.54,0-4.53,1.79-8,3.86-3.76,2.25-8,4.8-10.21,4.8a1.32,1.32,0,0,1-.91-.27c-.91-.85.23-3.75,1.15-6.08,1-2.69,2-5,.84-6a1.57,1.57,0,0,0-1-.35c-2.15,0-7,3.21-14.66,9.78,5.71-8.46,7.52-13.39,5.71-15.41a3.3,3.3,0,0,0-2.59-.93c-4,0-11.32,3.66-17.74,6.88-4.24,2.13-8.25,4.14-9.61,4.14a.59.59,0,0,1-.19,0c0-.37.88-2.75,15.87-15.26,15.89.45,32,1.12,48,2,44.81,2.47,74.57,5.84,96.3,8.31,18.78,2.12,32.34,3.66,46.39,3.75H1427c47.73,0,97.31-17.53,147.37-52.1,11.09,10.22,15.35,14.54,16.88,16.32l-.46-.28a52.09,52.09,0,0,0-10.18-5.1,40.29,40.29,0,0,0-12.17-2.54c-1.57,0-2.35.26-2.54.85-.27.86.71,1.47,3.62,3.3a123.46,123.46,0,0,1,10.62,7.3c2.29,1.76,3.57,2.89,3.81,3.37l-.25,0a31.86,31.86,0,0,1-5.84-1.35c-1.07-.3-2.19-.62-3.32-.91-5.83-1.53-14.54-3.18-19.88-3.18-2.87,0-4.4.46-4.82,1.46-.84,2,3.31,5,10.26,9.78,3.15,2.15,7.91,5.4,7.83,6.28h0a1.65,1.65,0,0,1-.74.11c-2.28,0-7.78-1.69-13.11-3.33-5.73-1.76-11.67-3.58-14.41-3.58-.37,0-1.49,0-1.87.75s-1.25,2.48,16.2,14.06a127.87,127.87,0,0,0-16.77-5c-1-.21-9.65-2.1-14.29-2.1-2,0-3,.34-3.25,1.1-.35,1,.77,1.84,3.76,4,2,1.49,4.85,3.54,8.45,6.56a50.21,50.21,0,0,1,5.75,5.26c-1.45-.23-5.12-2-9-3.83-6.54-3.11-14.69-7-18.64-7a2.78,2.78,0,0,0-2.29.85c-1.64,2.06,1.44,6.79,6,13.26,1.81,2.58,4.3,6.13,4.08,6.82-.94-.06-4.11-2.45-7.17-4.77-4.83-3.66-10.31-7.81-13.38-7.81a2.41,2.41,0,0,0-1.48.45c-2,1.51-.58,6.25.82,10.83.86,2.84,2,6.73,1.23,7.23a.48.48,0,0,1-.22,0c-1.54,0-5.46-4-8.61-7.26-4.28-4.38-7-7-8.6-7a1.23,1.23,0,0,0-.66.18c-1.44.9-.27,4.42,1.76,10.09,1.32,3.7,3.32,9.29,2.25,10a.62.62,0,0,1-.29.07c-1.78,0-6.3-4.33-10.3-8.15-5.36-5.12-8.75-8.23-10.7-8.23a1.46,1.46,0,0,0-.82.23c-1.58,1.08-.23,5.11,2,11.13,1,2.61,2.27,6.15,2,6.91-1-.2-4.42-4.38-6.71-7.17-4-4.85-5.83-7-6.92-7a.74.74,0,0,0-.42.12c-.93.55-.34,2.32,1.6,7.25,1.13,2.88,3.24,8.24,2.39,8.84a.34.34,0,0,1-.16,0c-1.29,0-4.79-3.34-7.88-6.28-4.19-4-8.51-8.11-11-8.11a1.88,1.88,0,0,0-1,.27c-2.18,1.31-1,6.91.79,14.1a44.11,44.11,0,0,1,1.2,5.66c-.37-.56-1-1.89-1.67-3.09-2.71-5.28-7.24-14.11-14.08-14.73a6.44,6.44,0,0,0-.7,0c-1.43,0-4.07.28-5.75,2.2-2.13,2.43-1.79,6.47-.84,10.18-2.33-4.44-5.82-9.25-10.73-10.33a10.47,10.47,0,0,0-2.33-.25,8.06,8.06,0,0,0-6.2,2.42c-3.32,3.86-.55,11.17,1.1,15.53.19.51.4,1.05.56,1.51-1-1.42-2.73-4.26-4.27-6.84-5.06-8.45-8.81-14.43-10.86-14.43a1.07,1.07,0,0,0-.39.07c-1.51.55-1.12,4.14-.35,9.94.38,2.88,1,7.7.36,8.14-.8,0-3.17-4.26-4.74-7.08-3.13-5.63-5.17-9.05-6.94-9.05a1.32,1.32,0,0,0-.34,0c-1.83.51-1.81,4.67-1.56,11.45C1367.83,839,1368,844.2,1367.29,844.53Z"/><path d="M1574.27,755.87c7.39,6.82,11.64,10.92,14.07,13.38a49,49,0,0,0-7.61-3.54,40.88,40.88,0,0,0-12.34-2.57c-1.23,0-2.67.13-3,1.2s.76,1.95,3.84,3.87c2.4,1.51,6,3.79,10.57,7.27,1.47,1.13,2.37,1.89,2.92,2.39-1.18-.21-2.93-.71-4.76-1.22-1.07-.3-2.2-.62-3.32-.92-5.86-1.53-14.62-3.19-20-3.19-3.14,0-4.77.55-5.28,1.76-1,2.42,3.31,5.53,10.43,10.39,2.68,1.83,6.22,4.24,7.31,5.48-2.25,0-7.66-1.7-12.89-3.3-6-1.86-11.74-3.61-14.56-3.61-.45,0-1.8,0-2.32,1s-1.34,2.65,13.09,12.5a127.2,127.2,0,0,0-13.1-3.65c-1-.21-9.7-2.11-14.4-2.11-1.51,0-3.3.16-3.73,1.44s.83,2.31,3.95,4.58c2,1.49,4.83,3.53,8.42,6.55,1.51,1.27,3.26,2.75,4.43,3.85-1.83-.73-4.6-2.05-7.14-3.26-6.94-3.3-14.8-7-18.86-7a3.26,3.26,0,0,0-2.69,1c-1.86,2.33,1.16,7,6,13.85a63,63,0,0,1,3.7,5.66,64.08,64.08,0,0,1-6.08-4.29c-4.89-3.71-10.44-7.91-13.68-7.91a2.94,2.94,0,0,0-1.78.55c-2.31,1.72-.88,6.41.64,11.38.66,2.17,1.76,5.77,1.43,6.62-1.39-.11-5.48-4.31-8.2-7.1-4.35-4.45-7.1-7.19-9-7.19a1.7,1.7,0,0,0-.92.26c-1.78,1.11-.69,4.42,1.54,10.68,1,2.78,3.07,8.56,2.44,9.42-1.58,0-6.42-4.63-10-8-5.43-5.19-8.87-8.37-11-8.37a1.92,1.92,0,0,0-1.1.32c-1.92,1.31-.57,5.3,1.8,11.71a58.08,58.08,0,0,1,1.93,5.77,69.14,69.14,0,0,1-5.74-6.52c-4.26-5.19-6-7.16-7.31-7.16a1.34,1.34,0,0,0-.68.19c-1.31.78-.67,2.63,1.4,7.86,1,2.46,2.72,6.93,2.52,8.18-1.27-.31-4.77-3.65-7.37-6.12-5.23-5-8.84-8.25-11.36-8.25a2.46,2.46,0,0,0-1.27.34c-2.48,1.49-1.33,7,.57,14.65.2.82.42,1.7.62,2.53l-.16-.31c-2.76-5.37-7.37-14.35-14.48-15-.1,0-.37,0-.75,0a8.19,8.19,0,0,0-6.13,2.37c-1.68,1.92-1.92,4.74-1.54,7.63-2.3-3.65-5.43-7-9.54-7.94a11.47,11.47,0,0,0-2.44-.26,8.57,8.57,0,0,0-6.58,2.59c-2.85,3.33-1.51,8.89,0,13.26-.6-1-1.22-2-1.79-3-6.2-10.35-9.14-14.68-11.29-14.68h0a1.54,1.54,0,0,0-.56.1c-1.88.69-1.53,4.07-.68,10.47a43.85,43.85,0,0,1,.61,7.28,46.16,46.16,0,0,1-4-6.52c-3.21-5.78-5.29-9.31-7.38-9.32a2,2,0,0,0-.48.07c-2.22.62-2.18,4.94-1.92,11.94.09,2.64.23,6.46-.11,7.85-.91-1.13-2.46-4.73-3.63-7.46-3.63-8.42-6.46-14.38-10-14.39l-.29,0c-3.27.33-4.93,6-6.38,11.09-.42,1.45-1,3.3-1.4,4.34a45.92,45.92,0,0,1-.56-4.86c-.43-5.12-.84-10-3.39-10.55a2,2,0,0,0-.49-.05c-2.29,0-4.42,3.6-6.88,7.78-1.31,2.22-3.74,6.34-4.65,6.35-.6-.38-.7-3.86-.76-5.72-.14-4.48-.29-9.1-3.13-10.31a3.29,3.29,0,0,0-1.33-.27c-3,0-6.52,3.6-10,7.08-2.34,2.36-5.25,5.3-6.56,5.3a.4.4,0,0,1-.16,0c-1-.52-.07-5.7.44-8.48.89-4.78,1.58-8.55-.44-9.6a2.05,2.05,0,0,0-.95-.23c-2.93,0-8,6-14.9,14.56-1.67,2.07-3.6,4.46-5,6,.6-1.35,1.43-3.06,2.17-4.56,4.4-9,7.32-15.55,4.8-17.68a2.64,2.64,0,0,0-1.79-.6h0c-3.07,0-8.59,3.8-13.93,7.48-3,2-6.56,4.52-8.1,5a41.83,41.83,0,0,1,3.78-6.21c3.62-5.32,5.44-8.16,4-9.64a1.8,1.8,0,0,0-1.35-.53c-1.61,0-4.19,1.5-8.26,3.93-3.53,2.11-7.91,4.73-10,4.73a.9.9,0,0,1-.57-.14c-.66-.61.6-3.81,1.27-5.53,1.13-2.87,2.1-5.35.71-6.55a2.06,2.06,0,0,0-1.38-.47c-1.36,0-4.11.91-12.41,7.74,5.63-9,5.1-11.79,3.84-13.2a3.79,3.79,0,0,0-3-1.1c-4.15,0-11.49,3.68-18,6.93a66.06,66.06,0,0,1-8.7,4c.9-1.34,4.1-4.91,15.17-14.15,15.81.45,31.89,1.12,47.82,2,44.79,2.47,74.54,5.84,96.26,8.3,18.79,2.13,32.37,3.67,46.45,3.76H1427c47.73,0,97.29-17.48,147.32-52m.09-1.27c-61.85,42.81-111.93,52.24-147.41,52.24h-1.28c-30.87-.2-60.56-7.53-142.66-12.06-20.26-1.11-37-1.69-48.22-2-13,10.87-16.75,15.11-16.08,16.08a.66.66,0,0,0,.57.21c3.53,0,20.6-11,27.35-11a2.85,2.85,0,0,1,2.22.76c2.09,2.34-2.09,9.76-8,18.09,10.29-9.06,15.34-12.29,17.36-12.29a1.1,1.1,0,0,1,.73.23c1.81,1.55-4.21,10-2,12.06a1.77,1.77,0,0,0,1.25.4c4.3,0,15.14-8.66,18.21-8.66a.82.82,0,0,1,.63.22c1.77,1.87-9.63,14.39-8,16.07a.63.63,0,0,0,.49.18c3.23,0,17.49-12.59,22.47-12.59a1.7,1.7,0,0,1,1.15.36c3.45,2.93-9.52,23.17-8,24.11a.21.21,0,0,0,.12,0c2.13,0,17-22.25,21.49-22.25a1,1,0,0,1,.49.12c2.82,1.46-3.25,16.42,0,18.08a1.31,1.31,0,0,0,.62.14c3.68,0,11.77-12.38,16.53-12.38a2.5,2.5,0,0,1,.94.18c4.13,1.78,1.15,15.33,4,16.08l.24,0c3.08,0,8.19-14.13,11.55-14.12a1.1,1.1,0,0,1,.26,0c3.28.76,2,15.85,4,16.08h0c2,0,3.61-15.63,8-16.08h.19c5.32,0,11,22.13,13.76,22.13h.11c2.41-.58-1-19.26,2-20.1l.21,0c3,0,9.33,16.13,11.7,16.13l.15,0c2.18-.72-2.39-17.21,0-18.09a.71.71,0,0,1,.21,0c3.24,0,14.31,22.15,15.81,22.15h0c1-.46-6.44-12.92-2-18.09a7.65,7.65,0,0,1,5.82-2.24,10.5,10.5,0,0,1,2.22.23c9.25,2.05,13.41,18.09,14,18.09h0c.55-.23-6.39-13.09-2-18.09,1.58-1.8,4.15-2,5.37-2,.35,0,.59,0,.65,0,9.32.86,14.46,18.1,16,18.1h.07c1.48-.56-5.37-18.07-2-20.1a1.44,1.44,0,0,1,.75-.19c4.3,0,15.68,14.39,18.9,14.39a.72.72,0,0,0,.44-.13c2.14-1.5-5.47-15.21-4-16.07a.34.34,0,0,1,.17,0c2,0,11.49,14.16,13.7,14.16a.42.42,0,0,0,.2,0c1.74-1-6.51-16.38-4-18.08a.94.94,0,0,1,.53-.15c3.82,0,17.08,16.38,21,16.38a.93.93,0,0,0,.56-.16c2.71-1.82-6.44-18.58-4-20.09a.71.71,0,0,1,.39-.11c3.11,0,13.79,14.3,17.21,14.3a.86.86,0,0,0,.48-.13c2.49-1.51-5.26-15.65-2-18.08a1.92,1.92,0,0,1,1.18-.35c5,0,17.88,12.52,20.57,12.52a.48.48,0,0,0,.35-.11c1.65-1.58-12.71-16.75-10-20.1a2.31,2.31,0,0,1,1.9-.66c6.45,0,24.85,10.85,27.85,10.85.2,0,.33,0,.39-.14.37-.64-2.59-3.13-6-6-8.24-6.93-12.46-8.84-12.06-10.05.19-.54,1.25-.75,2.78-.75,4.6,0,13.34,1.9,14.18,2.09a126.07,126.07,0,0,1,21.22,6.7c-17.62-11.4-20.66-15-20.09-16.07.16-.33.66-.48,1.42-.48,5.23,0,22.71,6.91,27.52,6.91.65,0,1.07-.12,1.2-.41,1.09-2.35-19.47-12.75-18.09-16.07.34-.81,2-1.15,4.36-1.15,5.11,0,13.61,1.55,19.75,3.16,3.84,1,7.67,2.28,9.29,2.28.4,0,.67-.08.76-.27.24-.5-.85-1.58-4-4-9-6.91-14.38-9.06-14.06-10.05.1-.33.86-.5,2.06-.5a40,40,0,0,1,12,2.51c7.06,2.56,11.22,6.07,12,6.07a.13.13,0,0,0,.1,0c.34-.4-2.8-4-18.09-18.08Z"/><path d="M1578.41,758c-9-6.35-18.37-12.38-27.91-17.92-.3-.18-30.46-17.62-60.36-28.17-30.24-10.67-62.89-16.08-97.05-16.08-61.54,0-106.37,17.36-108.25,18.09A277.35,277.35,0,0,0,1220.62,750c-22.59-6.14-28.23-8.46-29.35-9.33a9.86,9.86,0,0,1,1.65-.09c1.13,0,2.66.06,4.6.14,3.27.13,7.75.31,13.31.31l3.87,0c7.66-.11,20.52-.59,20.59-2.49,0-.86-1-.93-3.75-1.11-5.23-.35-15-1-22.55-7.33-8.16-6.81-11-17.76-10.61-21.85.09-.91.32-1.34.49-1.44h0c.64,0,1.85,1.35,3.24,2.91a57.77,57.77,0,0,0,9.92,9.21c12.65,9,26.93,9.66,31,9.66,1.31,0,7.85-.09,8.3-2,.26-1.1-1.14-1.62-4.19-2.76a62.71,62.71,0,0,1-18.09-9.8c-13-10.33-19.66-25-20.18-30.22-.09-.93.07-1.14.07-1.14.36.08,1.8,1.81,3.19,3.49,4.1,4.92,11.74,14.09,24.42,20.67,10.93,5.67,22.12,7.68,28.38,7.68,2.63,0,5.89-.33,6.47-1.93s-1.67-3-5.74-5.56c-5.27-3.32-13.24-8.34-20.46-17A70.43,70.43,0,0,1,1231.79,664a172.55,172.55,0,0,0,22.79,20.63c15.33,11.56,32.75,20.52,37.51,20.52a1.57,1.57,0,0,0,1.38-.54c.79-1.15-1-2.7-5-6.11-6.48-5.57-17.32-14.9-25.89-30.06-11.06-19.55-12.73-39.31-11.64-41.85a34.39,34.39,0,0,1,2,4.88c2.84,7.61,8.75,23.44,21.59,39s28.91,26.6,33.61,26.59a1.81,1.81,0,0,0,1.28-.42c1.12-1.08-.17-3.15-2.75-7.3a112.4,112.4,0,0,1-9.19-17.37c-9.25-22.47-7.7-42.81-6.47-45.34a32.56,32.56,0,0,1,1.08,4.25,109.43,109.43,0,0,0,12.53,33.5c8.49,14.45,22.15,28.63,27.58,28.63a2.31,2.31,0,0,0,1.25-.33c2.06-1.28.77-5.32-1.8-13.39-1.68-5.27-4-12.48-6-21.3-6.35-27.52-5.53-49.7-4.53-54.76.15.87.33,2.18.51,3.6a178.44,178.44,0,0,0,13.12,49.46c1.36,3.12,13.47,30.51,20,30.51a2.37,2.37,0,0,0,.65-.09c5.72-1.6,3.48-24.3,0-53.8-1.35-11.33-2.75-23-2-24.52,1.84,1.16,8.91,22.21,13.43,47.79,1.16,6.54,1.92,12.2,2.54,16.76,1.27,9.36,1.85,13.63,3.94,13.79h.11c5.29,0,10.42-32.25,10.47-32.57a221.35,221.35,0,0,0,.36-63.62c-.12-1-.24-1.84-.32-2.58,2.37,6.72,8.56,31.34,11,64.15.36,4.68.61,9.32.84,13.42.78,14.15,1.27,21,3.63,21.2h.12c1.29,0,3.06-1.71,6.44-14.44,7.55-28.42,7.67-54.89,7.73-66.19,0-1.76,0-3.38,0-4.49,1.37,5,4.5,22.87,5.31,48.47.23,7.37.21,13.92.2,19.18,0,11.7,0,17,2.21,17.46a1.14,1.14,0,0,0,.26,0c2.36,0,5.84-6.88,10.36-20.45,6-18.22,7.72-34.19,8.61-42.77a41.65,41.65,0,0,1,1-7c1,1.43,2.61,10.57,3.48,25.52a313.9,313.9,0,0,1-.27,38.14c-.46,8.16-.53,10.31.67,10.55h.16c.91,0,2.81,0,12.48-36.54a384.07,384.07,0,0,0,10-53.76c.6-4.83,1.12-9,1.61-10,1.47,2.27,3.89,23.35,1.5,49.56a251.24,251.24,0,0,1-6.56,36.94c-2.25,9.5-3.5,14.73-1.19,15.8a1.81,1.81,0,0,0,.81.17c3.87,0,11.6-11,13.88-14.41,15.22-22.6,18.33-46.13,19.5-55,.05-.41.1-.8.15-1.16.52,6.33.36,26.21-6.48,51.71-1.43,5.34-2.88,9.86-4,13.5-2.26,7.08-3.29,10.31-1.75,11.18a1.41,1.41,0,0,0,.69.17c4,0,16.94-16.1,26.11-32.51,13.4-24,17.22-45.9,18.85-55.27.31-1.78.59-3.38.81-4.24,1.45,5.09,1.77,36.91-12.51,69.11-3.7,8.33-8.09,16.11-11.3,21.79-4.37,7.72-5.7,10.2-4.61,11a.88.88,0,0,0,.51.15c2.18,0,9.8-8.47,14.24-14.32,19.09-25.19,26.3-51.09,29-60.83.06-.21.11-.41.17-.6-.72,6.53-3.76,23.25-12,44.87-4.38,11.53-8.78,20.63-12,27.28-4,8.27-5.1,10.69-3.89,11.5a1.06,1.06,0,0,0,.57.16c2.87,0,13.77-12.67,22.21-24.4a247.47,247.47,0,0,0,31.29-60c.94-2.5,1.78-4.73,2.28-5.7.38,4.09-3.09,27.09-16.34,53.1-7.91,15.52-17.14,26.77-22.65,33.5-4.51,5.49-6.57,8-5.4,9.26a1.68,1.68,0,0,0,1.28.45c4.13,0,18.84-9,31.6-22.55a124.79,124.79,0,0,0,24.44-38.84c.36-.86.71-1.7,1-2.31-.28,5-4.75,24.89-20.14,42.49-10.61,12.11-22.52,18.45-28.25,21.49-3.36,1.79-4.38,2.33-4,3.16.19.4.69.57,1.68.57,6.42,0,28.58-6.48,45.33-22.53,19.79-19,24.78-43.43,26.9-53.87.31-1.53.61-3,.85-3.78,1.19,4.68,1.15,34.45-18.43,57-12.18,14-28,20.53-35.58,23.66-3.88,1.6-5.06,2.08-4.69,3,.18.45.76.64,1.93.64,4.54,0,19.15-3.14,33-12.47,23.37-15.78,32.34-40.94,36.17-51.69.61-1.68,1.18-3.3,1.56-4.08.48,4-2.29,28-20.31,49-11.81,13.79-25.68,20.95-33.13,24.8-4.18,2.15-5.58,2.88-5.12,3.87.25.51.93.57,1.42.57,4.47,0,20.51-5.62,35.46-14.42A143.11,143.11,0,0,0,1623.22,714c-8.56,10.58-18.3,18.68-29,24.13a148.52,148.52,0,0,1-14.25,6.08c-6.26,2.4-8.4,3.29-8.11,4.52.13.58.74,1.17,4.17,1.17a53.4,53.4,0,0,0,8.46-.79,84.43,84.43,0,0,0,18.64-5.59C1598.91,746,1591.37,750.5,1578.41,758Z"/><path d="M1470,592.07c1.47,5.5,3,25.09.93,47.9a252.43,252.43,0,0,1-6.54,36.88c-2.4,10.07-3.6,15.12-.92,16.36a2.31,2.31,0,0,0,1,.22c4,0,11.33-10.23,14.3-14.63,13.11-19.47,17.27-39.63,18.93-50.57A186.91,186.91,0,0,1,1491,674c-1.43,5.33-2.88,9.84-4,13.47-2.41,7.58-3.42,10.71-1.52,11.78a2,2,0,0,0,.94.23c4.63,0,18.08-17.61,26.55-32.77,13.44-24,17.27-46,18.9-55.43.08-.42.15-.84.22-1.25.8,9.46,0,36.8-12.87,65.84-3.69,8.31-8.07,16.07-11.28,21.74-4.83,8.55-5.91,10.6-4.46,11.63a1.4,1.4,0,0,0,.8.24c2.72,0,11.19-10,14.64-14.52,15.5-20.45,23.19-41.36,27-53.77a225.79,225.79,0,0,1-10.65,36.74c-4.37,11.5-8.76,20.59-12,27.23-4,8.27-5.35,11-3.72,12.13a1.52,1.52,0,0,0,.85.25c3.58,0,15.77-15.09,22.62-24.61a247.56,247.56,0,0,0,31.34-60.08c.44-1.16.87-2.3,1.25-3.27-.66,7.56-4.81,27.87-16.21,50.26-7.89,15.48-17.1,26.7-22.6,33.41-4.84,5.9-6.85,8.34-5.37,9.92a2.13,2.13,0,0,0,1.64.61c4.9,0,19.93-9.92,32-22.71A124.15,124.15,0,0,0,1589,663.48a89.05,89.05,0,0,1-19.39,38.22c-10.54,12-22.4,18.35-28.1,21.38-3.5,1.86-4.81,2.55-4.19,3.82.36.75,1.28.85,2.12.85,6.49,0,28.84-6.52,45.68-22.66C1605,686,1610,661.44,1612.15,651c.07-.32.13-.63.19-.94a72.38,72.38,0,0,1-1.48,17.37c-1.94,9.79-6.48,24-17.16,36.33-12.1,13.92-27.83,20.41-35.39,23.53-4.13,1.7-5.52,2.27-5,3.62.34.84,1.41.95,2.4.95,4.59,0,19.34-3.16,33.25-12.55,23.51-15.87,32.52-41.15,36.37-51.94.2-.57.4-1.14.59-1.66-.51,7.56-4.76,28.07-20.2,46.09-11.75,13.72-25.56,20.85-33,24.68-4.5,2.32-6,3.1-5.34,4.53.41.86,1.5.86,1.87.86,4.52,0,20.69-5.65,35.71-14.49a140.81,140.81,0,0,0,14.51-9.8,87.14,87.14,0,0,1-25.52,20.1,146.45,146.45,0,0,1-14.2,6.06c-6.42,2.47-8.83,3.39-8.42,5.11.26,1.1,1.61,1.55,4.66,1.55a54.54,54.54,0,0,0,8.54-.8,81.33,81.33,0,0,0,13.23-3.47c-4.36,2.59-10.57,6.24-19.37,11.35-8.92-6.3-18.23-12.27-27.69-17.76h0c-1.43-.85-30.88-17.78-60.45-28.21-30.28-10.69-63-16.11-97.2-16.11a344.84,344.84,0,0,0-77.65,9.06c-17.3,4.06-28.66,8.19-30.78,9.11l0,0a275.17,275.17,0,0,0-48.9,25.35,2.51,2.51,0,0,0,0-.27c0-1.35-1.38-1.44-4.21-1.63-5.18-.35-14.82-1-22.27-7.21a31.25,31.25,0,0,1-10.43-19.94,5.8,5.8,0,0,1,.2-2.43,19.45,19.45,0,0,1,2.67,2.71,58.13,58.13,0,0,0,10,9.28c12.77,9,27.18,9.75,31.29,9.75,3.07,0,8.29-.31,8.78-2.39.36-1.53-1.26-2.14-4.49-3.35a62.2,62.2,0,0,1-18-9.72c-13.9-11-19.6-26-20-29.93.62.63,1.52,1.71,2.4,2.77,4.12,4.95,11.8,14.16,24.57,20.79,11,5.71,22.29,7.74,28.61,7.74,4.06,0,6.4-.76,6.94-2.26.72-2-1.65-3.45-5.94-6.15-5.25-3.31-13.18-8.3-20.35-16.93a69.36,69.36,0,0,1-12.71-23.72,173.09,173.09,0,0,0,21.39,19.13c15.41,11.61,33,20.62,37.81,20.62a2,2,0,0,0,1.79-.76c1-1.52-.74-3-5.06-6.77-6.45-5.55-17.24-14.85-25.78-29.93-9.89-17.49-12-34.55-11.8-39.91.37.91.83,2.12,1.29,3.37,2.85,7.63,8.78,23.51,21.67,39.15,13.27,16.1,29.26,26.77,34,26.77a2.26,2.26,0,0,0,1.62-.56c1.42-1.36,0-3.55-2.67-7.92a111.64,111.64,0,0,1-9.15-17.3c-8-19.49-7.91-37.68-6.92-43.35.19.76.39,1.66.58,2.55a110,110,0,0,0,12.59,33.65c8.72,14.84,22.33,28.88,28,28.88a2.86,2.86,0,0,0,1.51-.4c2.4-1.49,1.07-5.66-1.58-14-1.68-5.26-4-12.47-6-21.27-5.37-23.27-5.54-42.06-5-50.56a180.83,180.83,0,0,0,13.11,49.18c2.23,5.14,13.72,30.81,20.49,30.81a3,3,0,0,0,.79-.11c6.11-1.71,4-23.6.31-54.34-1.1-9.24-2.34-19.55-2.16-23.13,2.57,4.58,8.66,24,12.65,46.54,1.15,6.54,1.92,12.2,2.54,16.75,1.34,9.92,1.9,14,4.39,14.22h.15c1.42,0,3.43-1.3,6.35-11.43a188.54,188.54,0,0,0,4.62-21.56,218.68,218.68,0,0,0,.72-60.75c2.87,10.53,7.34,31.92,9.35,58.66.35,4.67.6,9.31.83,13.4.84,15.21,1.3,21.4,4.08,21.67h.17c1.45,0,3.3-1.14,6.93-14.81,7.56-28.49,7.68-55,7.74-66.32v-.32c1.51,7.69,3.7,23.28,4.36,44.31.23,7.37.21,13.91.2,19.17,0,12.34,0,17.45,2.62,18a2,2,0,0,0,.35,0c1.07,0,3.92,0,10.83-20.79,6.08-18.27,7.74-34.28,8.64-42.88.21-2,.41-4,.62-5.3.92,3.35,2.16,11.77,2.86,23.81a312.9,312.9,0,0,1-.27,38.08c-.48,8.46-.61,10.73,1.07,11.07a1.1,1.1,0,0,0,.26,0c1.35,0,3.2,0,13-36.91a384.39,384.39,0,0,0,10-53.83c.43-3.52.83-6.69,1.18-8.49M1233.77,740.14q-6.74,4.47-13.26,9.35c-17.57-4.78-24.59-7.19-27.36-8.38,1.09,0,2.55.07,4.35.14,3.28.13,7.77.31,13.34.31l3.87,0c5.41-.08,10.45-.32,14.19-.68a37.41,37.41,0,0,0,4.87-.71m149.72-154.33h0c-1,.16,6.07,29.67,0,68.32-2.25,14.31-6.67,32.15-10,32.15h-.07c-2.61-.2-2.74-11.53-6-30.14-4.45-25.19-11.93-48.23-14-48.23h0c-3.59.64,11.32,75.75,2,78.36a1.81,1.81,0,0,1-.52.07c-6.32,0-19-28.83-19.58-30.21-12.86-29.6-12.86-54.25-14-54.25h0c-1.21.11-3.17,25.13,4,56.26,4.87,21.11,11,32.31,8,34.16a1.87,1.87,0,0,1-1,.25c-4.83,0-18.14-13-27.15-28.38-12-20.39-12.44-38.18-14-38.18h0c-1.8.27-3.61,22.82,6,46.21,6.15,14.94,13.77,22.47,12.05,24.12a1.33,1.33,0,0,1-.93.28c-4.45,0-20.43-10.89-33.23-26.41-18.25-22.13-22.22-44.21-24-44.21h-.07c-1.72.53-.59,21.69,11.31,42.72,13.29,23.49,32.42,33.43,30.89,35.64a1.13,1.13,0,0,1-1,.33c-4.37,0-21.43-8.52-37.21-20.42a171.28,171.28,0,0,1-24.11-22.1,71.91,71.91,0,0,0,14.06,28.13c12.42,14.94,27.18,19.2,26.12,22.1-.37,1-2.6,1.6-6,1.6-6.62,0-17.69-2.2-28.15-7.63-18.23-9.45-25.85-24.17-27.92-24.17a.37.37,0,0,0-.21.06c-1.81,1.23,4.4,19.69,20.09,32.15,11.74,9.33,22.51,10.31,22.1,12.06-.21.89-3.24,1.62-7.81,1.62-7.87,0-20.3-2.19-30.72-9.56-8.1-5.75-11.6-12.24-13.38-12.24a.62.62,0,0,0-.33.08c-2.24,1.27.21,15.9,10.05,24.11,10.78,9,26.16,6.72,26.12,8,0,1-9.24,1.85-20.1,2l-3.85,0c-8.82,0-14.85-.45-17.92-.45-1.49,0-2.27.11-2.34.42-.18.86,5,3.23,30.14,10.05a275.4,275.4,0,0,1,64.3-36.17s45.72-18.06,108.08-18.06c29.58,0,62.9,4.06,96.87,16,30.2,10.66,60.28,28.13,60.28,28.13,11.69,6.79,21.2,13.17,28.13,18.09,24.21-14,30.27-17.86,30.14-18.09h0c-.61,0-10.24,5.66-24.08,8.05a53.55,53.55,0,0,1-8.37.78c-2,0-3.55-.23-3.69-.78-.38-1.63,11.41-4.6,22.11-10.05,8.67-4.41,20.49-12.42,32.15-28.13a142.16,142.16,0,0,1-22.11,16.08c-15.51,9.13-31.18,14.35-35.2,14.35-.54,0-.87-.1-1-.29-.85-1.79,21-8.08,38.17-28.13,19.37-22.6,21.64-49.66,20.1-50.23h0c-1.89,0-8.2,36.07-38.13,56.27-13.63,9.2-28.11,12.38-32.69,12.38-.87,0-1.38-.12-1.47-.33-.63-1.55,23.25-6.63,40.19-26.12,21.2-24.39,19.79-57.86,18.08-58.27h0c-1.72,0-2.7,33.94-28.1,58.27-17.41,16.68-39.55,22.39-45,22.39-.71,0-1.13-.1-1.22-.28-.66-1.35,16.93-6.72,32.15-24.12,17.54-20.05,21.16-43.76,20.09-44.2h0c-1.13,0-6.64,21.54-26.09,42.2-12.45,13.23-27.13,22.4-31.24,22.4a1.19,1.19,0,0,1-.91-.29c-2.14-2.28,14.66-15.75,28.13-42.2,14.43-28.34,17.51-53.8,16.07-54.25h0c-1.7,0-8.94,31.33-34.12,66.32-8.93,12.42-19.33,24.19-21.8,24.19a.56.56,0,0,1-.3-.08c-1.8-1.2,7.32-15.12,16.08-38.18,10.46-27.56,12.75-48,12-48.22h0c-.92,0-6.37,33-30.13,64.3-5,6.64-12.11,14.12-13.84,14.12a.38.38,0,0,1-.22-.06c-1.53-1.07,8.59-15.28,16.07-32.15,16-36,13.69-70.08,12.06-70.32h0c-1.48,0-2.1,28.11-20.08,60.28-9.34,16.72-22.11,32.25-25.67,32.25a.93.93,0,0,1-.45-.1c-1.87-1.06,2.13-9.57,6-24.12,8.19-30.54,6.93-54.14,6-54.25h0c-1,0-1,30-20.08,58.27-.94,1.39-9.64,14.19-13.47,14.19a1.46,1.46,0,0,1-.6-.12c-3.9-1.81,5.26-21.87,8-52.25,2.46-26.91-.1-50.16-2-50.23h0c-2,0-2,26.2-12,64.3-5,19-10.07,36.17-12,36.17h-.06c-1.92-.38,1.69-18.89,0-48.23-.83-14.34-2.63-26.12-4-26.12h0c-1.9,0-.72,22.19-10,50.24-1.11,3.34-6.69,20.11-9.88,20.11l-.17,0c-2.77-.53-1.32-14.37-2-36.17-.94-29.81-5.1-50.23-6-50.23h0c-1.19.09,2.09,34.19-8,72.33-3.21,12.1-5,14.07-6,14.07h-.07c-2.77-.28-2.68-16.3-4-34.16-2.88-38.49-11-66.3-12-66.31Z"/><path class="cls-8" d="M1376.66,830.57c-53.7,0-94.49-14.68-137.67-30.23-33.32-12-40.42-18.3-41.89-25.75-3.34-17,23-40.31,74.08-65.76,52.68-26.24,101-30.16,125-30.16,2.35,0,4.17,0,5.33.07,53,1.33,90.37,18,108.31,26.08,59.08,26.45,69.6,43.81,68,53.72-.74,4.63-4.22,8.39-23.87,19.74-26.77,15.44-40.21,23.2-66.22,32.11-17.13,5.86-45.8,15.68-85.28,19.06C1393.82,830.19,1385.12,830.57,1376.66,830.57Z"/><path d="M1396.22,678.17v1c2.34,0,4.16,0,5.32.07,52.93,1.32,90.2,18,108.12,26,58.78,26.32,69.28,43.45,67.73,53.18-.7,4.46-4.14,8.14-23.62,19.38-26.74,15.44-40.17,23.18-66.13,32.07-17.11,5.86-45.74,15.66-85.16,19-8.69.74-17.38,1.12-25.82,1.12-53.61,0-94.37-14.67-137.52-30.2-33.07-11.9-40.12-18.1-41.55-25.37-3.29-16.72,22.92-39.88,73.81-65.22,52.59-26.19,100.78-30.11,124.82-30.11v-1m0,0c-18.86,0-69.62,2.5-125.27,30.21-13.72,6.84-79.59,39.64-74.34,66.31,1.5,7.61,8.65,14,42.2,26.12,42.65,15.35,84.07,30.26,137.85,30.26,8.32,0,16.94-.36,25.91-1.12,38.75-3.32,67.27-12.88,85.39-19.09,26.06-8.92,39.48-16.67,66.31-32.15,19.79-11.42,23.34-15.25,24.11-20.09,3.51-22.1-53.71-47.72-68.31-54.26-19.52-8.74-56.44-24.82-108.51-26.12-1.29,0-3.09-.07-5.34-.07Z"/><ellipse class="cls-9" cx="1389.96" cy="754.6" rx="83.34" ry="74.85"/><path d="M1390,680.25c45.68,0,82.84,33.35,82.84,74.35S1435.64,829,1390,829s-82.84-33.36-82.84-74.35,37.16-74.35,82.84-74.35m0-1c-46.31,0-83.84,33.73-83.84,75.35S1343.65,830,1390,830s83.84-33.74,83.84-75.35-37.54-75.35-83.84-75.35Z"/><circle class="cls-10" cx="1390.51" cy="753.59" r="67.82"/><path d="M1390.51,686.27a67.32,67.32,0,1,1-67.32,67.32,67.4,67.4,0,0,1,67.32-67.32m0-1a68.32,68.32,0,1,0,68.32,68.32,68.32,68.32,0,0,0-68.32-68.32Z"/><path d="M1389.5,779.21a24.62,24.62,0,1,1,24.62-24.61A24.64,24.64,0,0,1,1389.5,779.21Z"/><path d="M1389.51,730.48a24.12,24.12,0,1,1-24.12,24.12,24.14,24.14,0,0,1,24.12-24.12m0-1a25.12,25.12,0,1,0,25.11,25.12,25.12,25.12,0,0,0-25.11-25.12Z"/><path class="cls-8" d="M1410.1,752.09c-6.65,0-12.06-4.51-12.06-10.05s5.41-10,12.06-10,12.06,4.51,12.06,10S1416.75,752.09,1410.1,752.09Z"/><path d="M1410.1,732.49c6.37,0,11.56,4.28,11.56,9.55s-5.19,9.55-11.56,9.55-11.56-4.29-11.56-9.55,5.19-9.55,11.56-9.55m0-1c-6.93,0-12.56,4.72-12.56,10.55s5.63,10.55,12.56,10.55,12.56-4.73,12.56-10.55-5.62-10.55-12.56-10.55Z"/><path class="cls-11" d="M1209.44,790.69a33.37,33.37,0,0,1-4.72-.42c-2.57-.36-10.37-1.45-13.7-7.77-2.28-4.36-1.32-9-1-10.72a24.19,24.19,0,0,1,3-6.88c2.93-5,7-11.83,11.26-11.83l.33,0c2.64.21,4.53,3.07,7.66,7.81a33.52,33.52,0,0,1,5,10.9c1.25,5.05,3.15,12.68-.87,16.6C1214.77,789.94,1212.51,790.69,1209.44,790.69Z"/><path d="M1204.28,753.57h.29c2.39.19,4.23,3,7.28,7.6a33.1,33.1,0,0,1,4.89,10.74c1.22,4.94,3.07,12.4-.74,16.12-1.48,1.45-3.63,2.15-6.56,2.15a33,33,0,0,1-4.66-.42c-2.5-.35-10.11-1.41-13.31-7.51-2.2-4.19-1.27-8.69-.91-10.38a24,24,0,0,1,2.89-6.73c2.87-4.89,6.81-11.58,10.83-11.58m0-1c-4.59,0-8.62,6.86-11.69,12.07a23.08,23.08,0,0,0-3,7c-.37,1.74-1.37,6.54,1,11.05,3.44,6.55,11.47,7.67,14.07,8a34.19,34.19,0,0,0,4.79.43c2.58,0,5.29-.51,7.26-2.43,4.22-4.12,2.27-12,1-17.08a34.18,34.18,0,0,0-5-11.06c-3.25-4.92-5.15-7.8-8-8l-.37,0Z"/><g class="cls-12"><path class="cls-13" d="M1199,944h-.48c-8.16-.33-13.88-9-15.73-14.83-2.47-7.68.41-13.18,5.18-22.29a171.66,171.66,0,0,0,8-16.83c17-42.64,3.67-74.21,1.06-77.5-.4-.5-1.4-1.8-2.57-3.59-.48-.76-.94-1.53-1.4-2.37-5.61-10.27-7.71-25.13-4.9-34.56,1-3.46,2.65-5.86,4.7-7a5.15,5.15,0,0,1,2.46-.63c3.27,0,7,3,12.07,7,7.05,5.65,16.71,13.38,31.3,17.74a48.22,48.22,0,0,0,14,2.27,67.55,67.55,0,0,0,11.07-1.17,97.8,97.8,0,0,1,17-1.59c3.25,0,6.59.16,10.21.5,17.92,1.69,27.73,6.31,37.22,10.78s18.69,8.8,35.15,9.32c1,0,1.87,0,2.72,0h0c7.62,0,11.24-1.16,16.73-2.91,6.05-1.93,14.33-4.58,32.87-7.18a277.87,277.87,0,0,1,39.51-2.85c11.83-.13,19.64-.22,32.93-5.22a80.52,80.52,0,0,0,18.58-9.75,108.54,108.54,0,0,1,23.62-12.35c14.26-5.63,34.41-11.45,43.45-11.45,3.15,0,3.94.72,4.14,1.14a1.8,1.8,0,0,1-.14,1.38c-3.32,8.18-42.27,33.92-84,50.19a309.84,309.84,0,0,1-68.21,18.06,363.73,363.73,0,0,1-50.91,3.54c-37.79,0-70.28-5.53-91.47-15.56-9.6-4.54-21.18-8.4-44.25-16.09-10.83-3.61-14.72-4.65-17.37-4.65a7.89,7.89,0,0,0-1.57.15,8.43,8.43,0,0,0-1.41.45c-8.69,3.43-9.92,26.59-10.49,52.09-.86,37.89-1.14,54.89,1,60.89.5,1.39,1.06,2.78,1.61,4.18,2.73,6.88,5.55,14,2.45,20.73C1211,939.07,1205.37,944,1199,944Z"/><path d="M1573.8,757.18v1c3.2,0,3.63.76,3.67.85a1.39,1.39,0,0,1-.14,1c-3.3,8.1-42.11,33.69-83.7,49.92a309.51,309.51,0,0,1-68.1,18,361.33,361.33,0,0,1-50.84,3.54c-37.72,0-70.13-5.51-91.25-15.51-9.63-4.56-21.23-8.42-44.32-16.12-10.88-3.62-14.81-4.67-17.52-4.67a8.16,8.16,0,0,0-1.67.16,8.42,8.42,0,0,0-1.49.48l-.09,0c-8.89,3.51-10.14,26.84-10.72,52.51-.86,38-1.14,55,1.07,61.07.51,1.4,1.07,2.82,1.61,4.19,2.82,7.1,5.48,13.81,2.47,20.34-2.19,4.75-7.62,9.55-13.77,9.55h-.46c-7.9-.32-13.47-8.84-15.28-14.48-2.4-7.48.45-12.91,5.15-21.91a170.56,170.56,0,0,0,8-16.88c17.14-42.85,3.62-74.67,1-78-.38-.47-1.38-1.76-2.52-3.52-.48-.75-.93-1.52-1.38-2.34-5.55-10.16-7.64-24.86-4.86-34.18,1-3.32,2.53-5.62,4.45-6.65a4.58,4.58,0,0,1,2.23-.58c3.09,0,6.92,3.06,11.76,6.94,7.08,5.67,16.78,13.44,31.47,17.82a48.48,48.48,0,0,0,14.15,2.3,67.22,67.22,0,0,0,11.15-1.18,98.09,98.09,0,0,1,17-1.58c3.23,0,6.56.16,10.16.5,17.84,1.68,27.61,6.28,37.06,10.73,9.66,4.55,18.78,8.85,35.34,9.37,1,0,1.88,0,2.74,0,7.71,0,11.36-1.16,16.89-2.93,6-1.93,14.3-4.57,32.79-7.17a278.13,278.13,0,0,1,39.45-2.84c11.87-.13,19.72-.22,33.09-5.25a80.63,80.63,0,0,0,18.69-9.81,108.65,108.65,0,0,1,23.53-12.3c14.21-5.61,34.28-11.41,43.27-11.41v-1m0,0c-9,0-28.9,5.67-43.63,11.48-23.91,9.43-23.44,15.05-42.2,22.1-23.69,8.92-30.18,2.13-72.33,8-35.25,5-33.58,10.09-49.54,10.09-.85,0-1.75,0-2.71,0-32.39-1-36-16.67-72.33-20.09-3.85-.37-7.23-.51-10.26-.51-13.12,0-19.57,2.76-28.12,2.76a47.56,47.56,0,0,1-13.86-2.25c-25-7.46-35.31-24.81-43.52-24.81a5.65,5.65,0,0,0-2.7.69c-8.22,4.41-8.32,27,0,42.2.5.92,1,1.7,1.42,2.4,1.36,2.09,2.5,3.51,2.6,3.63,1.45,1.83,16.55,32.76-1.14,77-8.2,20.53-17,27.62-13.15,39.46,2,6.36,7.94,14.85,16.19,15.18h.5c6.29,0,12.19-4.73,14.68-10.13,3.81-8.28-1-16.86-4-25.29-2.2-6-1.83-24.35-1-60.71.5-22.41,1.44-48.19,10.08-51.6a9.27,9.27,0,0,1,1.43-.46,7.24,7.24,0,0,1,1.46-.14c2.7,0,7,1.23,17.21,4.62,23.08,7.69,34.62,11.54,44.2,16.08,22.82,10.8,57.21,15.6,91.68,15.6a362.16,362.16,0,0,0,51-3.55A311,311,0,0,0,1494,810.86c45-17.55,87.18-46.11,84.39-52.24-.45-1-2.09-1.44-4.59-1.44Z"/></g></g></g></svg>